<mxfile host="app.diagrams.net" modified="2022-06-10T06:38:56.716Z" agent="5.0 (Windows NT 10.0; Win64; x64) AppleWebKit/537.36 (KHTML, like Gecko) Chrome/102.0.5005.63 Safari/537.36" etag="K4ZOzU9MqNGvYStKZnjA" version="19.0.0" type="github">
  <diagram id="5oWeMIHYimpNjEYFYi9c" name="信息流效果集合品牌SDK">
    <mxGraphModel dx="1497" dy="743" grid="1" gridSize="10" guides="1" tooltips="1" connect="1" arrows="1" fold="1" page="1" pageScale="1" pageWidth="1100" pageHeight="850" math="0" shadow="0">
      <root>
        <mxCell id="0" />
        <mxCell id="1" parent="0" />
        <object placeholders="1" c4Name="Http Endpoint" c4Type="SystemScopeBoundary" c4Application="ad-show-gateway-service" label="&lt;font style=&quot;font-size: 16px&quot;&gt;&lt;b&gt;&lt;div style=&quot;text-align: left&quot;&gt;%c4Name%&lt;/div&gt;&lt;/b&gt;&lt;/font&gt;&lt;div style=&quot;text-align: left&quot;&gt;[%c4Application%]&lt;/div&gt;" id="68UAQQjrMY6dqDlBcahg-1">
          <mxCell style="rounded=1;fontSize=11;whiteSpace=wrap;html=1;dashed=1;arcSize=20;fillColor=none;strokeColor=#666666;fontColor=#333333;labelBackgroundColor=none;align=left;verticalAlign=bottom;labelBorderColor=none;spacingTop=0;spacing=10;dashPattern=8 4;metaEdit=1;rotatable=0;perimeter=rectanglePerimeter;noLabel=0;labelPadding=0;allowArrows=0;connectable=0;expand=0;recursiveResize=0;editable=1;pointerEvents=0;absoluteArcSize=1;points=[[0.25,0,0],[0.5,0,0],[0.75,0,0],[1,0.25,0],[1,0.5,0],[1,0.75,0],[0.75,1,0],[0.5,1,0],[0.25,1,0],[0,0.75,0],[0,0.5,0],[0,0.25,0]];" vertex="1" parent="1">
            <mxGeometry x="10" y="190" width="240" height="210" as="geometry" />
          </mxCell>
        </object>
        <object placeholders="1" c4Name="Dubbo RPC" c4Type="SystemScopeBoundary" c4Application="ad-show-mixer-service" label="&lt;font style=&quot;font-size: 16px&quot;&gt;&lt;b&gt;&lt;div style=&quot;text-align: left&quot;&gt;%c4Name%&lt;/div&gt;&lt;/b&gt;&lt;/font&gt;&lt;div style=&quot;text-align: left&quot;&gt;[%c4Application%]&lt;/div&gt;" id="68UAQQjrMY6dqDlBcahg-2">
          <mxCell style="rounded=1;fontSize=11;whiteSpace=wrap;html=1;dashed=1;arcSize=20;fillColor=none;strokeColor=#666666;fontColor=#333333;labelBackgroundColor=none;align=left;verticalAlign=bottom;labelBorderColor=none;spacingTop=0;spacing=10;dashPattern=8 4;metaEdit=1;rotatable=0;perimeter=rectanglePerimeter;noLabel=0;labelPadding=0;allowArrows=0;connectable=0;expand=0;recursiveResize=0;editable=1;pointerEvents=0;absoluteArcSize=1;points=[[0.25,0,0],[0.5,0,0],[0.75,0,0],[1,0.25,0],[1,0.5,0],[1,0.75,0],[0.75,1,0],[0.5,1,0],[0.25,1,0],[0,0.75,0],[0,0.5,0],[0,0.25,0]];" vertex="1" parent="1">
            <mxGeometry x="460" y="190" width="770" height="540" as="geometry" />
          </mxCell>
        </object>
        <mxCell id="68UAQQjrMY6dqDlBcahg-23" value="6.ifBrandPerformanceMixReq" style="edgeStyle=orthogonalEdgeStyle;rounded=0;orthogonalLoop=1;jettySize=auto;html=1;entryX=0.989;entryY=0.443;entryDx=0;entryDy=0;entryPerimeter=0;labelBackgroundColor=default;strokeWidth=2;" edge="1" parent="1" source="68UAQQjrMY6dqDlBcahg-6" target="68UAQQjrMY6dqDlBcahg-15">
          <mxGeometry relative="1" as="geometry">
            <Array as="points">
              <mxPoint x="1140" y="240" />
              <mxPoint x="1140" y="447" />
            </Array>
          </mxGeometry>
        </mxCell>
        <mxCell id="68UAQQjrMY6dqDlBcahg-6" value="MixerAdRequestContext" style="rounded=1;whiteSpace=wrap;html=1;fillColor=#1ba1e2;strokeColor=#006EAF;fontColor=#ffffff;" vertex="1" parent="1">
          <mxGeometry x="495" y="210" width="595" height="60" as="geometry" />
        </mxCell>
        <mxCell id="68UAQQjrMY6dqDlBcahg-7" value="MixerAdResponseContext" style="rounded=1;whiteSpace=wrap;html=1;fillColor=#1ba1e2;strokeColor=#006EAF;fontColor=#ffffff;" vertex="1" parent="1">
          <mxGeometry x="495" y="620" width="595" height="60" as="geometry" />
        </mxCell>
        <mxCell id="68UAQQjrMY6dqDlBcahg-10" value="1. fille feeds ad" style="edgeStyle=orthogonalEdgeStyle;rounded=0;orthogonalLoop=1;jettySize=auto;html=1;strokeWidth=2;" edge="1" parent="1" source="68UAQQjrMY6dqDlBcahg-8" target="68UAQQjrMY6dqDlBcahg-9">
          <mxGeometry relative="1" as="geometry">
            <Array as="points">
              <mxPoint x="660" y="420" />
              <mxPoint x="660" y="420" />
            </Array>
          </mxGeometry>
        </mxCell>
        <mxCell id="68UAQQjrMY6dqDlBcahg-16" style="edgeStyle=orthogonalEdgeStyle;rounded=0;orthogonalLoop=1;jettySize=auto;html=1;entryX=0.421;entryY=0.005;entryDx=0;entryDy=0;entryPerimeter=0;labelBackgroundColor=none;strokeWidth=2;" edge="1" parent="1" source="68UAQQjrMY6dqDlBcahg-8" target="68UAQQjrMY6dqDlBcahg-15">
          <mxGeometry relative="1" as="geometry">
            <Array as="points">
              <mxPoint x="543" y="340" />
              <mxPoint x="1010" y="340" />
            </Array>
          </mxGeometry>
        </mxCell>
        <mxCell id="68UAQQjrMY6dqDlBcahg-18" value="5.process transparent" style="edgeLabel;html=1;align=center;verticalAlign=middle;resizable=0;points=[];" vertex="1" connectable="0" parent="68UAQQjrMY6dqDlBcahg-16">
          <mxGeometry x="-0.039" y="-1" relative="1" as="geometry">
            <mxPoint as="offset" />
          </mxGeometry>
        </mxCell>
        <mxCell id="68UAQQjrMY6dqDlBcahg-8" value="AdDetailFilter" style="rounded=1;whiteSpace=wrap;html=1;fillColor=#1ba1e2;fontColor=#ffffff;strokeColor=#006EAF;" vertex="1" parent="1">
          <mxGeometry x="495" y="370" width="95" height="180" as="geometry" />
        </mxCell>
        <mxCell id="68UAQQjrMY6dqDlBcahg-13" value="3. save transMap&amp;amp;transparent to contextAdInfo" style="edgeStyle=orthogonalEdgeStyle;rounded=0;orthogonalLoop=1;jettySize=auto;html=1;exitX=0.5;exitY=1;exitDx=0;exitDy=0;strokeWidth=2;" edge="1" parent="1" source="68UAQQjrMY6dqDlBcahg-9">
          <mxGeometry relative="1" as="geometry">
            <mxPoint x="760" y="620" as="targetPoint" />
          </mxGeometry>
        </mxCell>
        <mxCell id="68UAQQjrMY6dqDlBcahg-9" value="FeedsDetailFill" style="rounded=1;whiteSpace=wrap;html=1;fillColor=#1ba1e2;fontColor=#ffffff;strokeColor=#006EAF;" vertex="1" parent="1">
          <mxGeometry x="720" y="370" width="95" height="180" as="geometry" />
        </mxCell>
        <mxCell id="68UAQQjrMY6dqDlBcahg-11" style="edgeStyle=orthogonalEdgeStyle;rounded=0;orthogonalLoop=1;jettySize=auto;html=1;entryX=1;entryY=0.858;entryDx=0;entryDy=0;entryPerimeter=0;strokeWidth=2;" edge="1" parent="1" source="68UAQQjrMY6dqDlBcahg-9" target="68UAQQjrMY6dqDlBcahg-9">
          <mxGeometry relative="1" as="geometry">
            <Array as="points">
              <mxPoint x="768" y="420" />
              <mxPoint x="870" y="420" />
              <mxPoint x="870" y="543" />
            </Array>
          </mxGeometry>
        </mxCell>
        <mxCell id="68UAQQjrMY6dqDlBcahg-12" value="2. setCreativeTrnsparent" style="edgeLabel;html=1;align=center;verticalAlign=middle;resizable=0;points=[];labelBackgroundColor=default;" vertex="1" connectable="0" parent="68UAQQjrMY6dqDlBcahg-11">
          <mxGeometry x="-0.0412" y="5" relative="1" as="geometry">
            <mxPoint as="offset" />
          </mxGeometry>
        </mxCell>
        <mxCell id="68UAQQjrMY6dqDlBcahg-20" value="7.return creativeTransparent" style="edgeStyle=orthogonalEdgeStyle;rounded=0;orthogonalLoop=1;jettySize=auto;html=1;entryX=0.25;entryY=0;entryDx=0;entryDy=0;labelBackgroundColor=default;strokeWidth=2;dashed=1;" edge="1" parent="1" source="68UAQQjrMY6dqDlBcahg-15" target="68UAQQjrMY6dqDlBcahg-8">
          <mxGeometry relative="1" as="geometry">
            <Array as="points">
              <mxPoint x="1040" y="310" />
              <mxPoint x="519" y="310" />
            </Array>
          </mxGeometry>
        </mxCell>
        <mxCell id="68UAQQjrMY6dqDlBcahg-15" value="FeedsTranspa&lt;br&gt;rentProcessor" style="rounded=1;whiteSpace=wrap;html=1;fillColor=#1ba1e2;fontColor=#ffffff;strokeColor=#006EAF;" vertex="1" parent="1">
          <mxGeometry x="970" y="365" width="95" height="185" as="geometry" />
        </mxCell>
        <mxCell id="68UAQQjrMY6dqDlBcahg-14" value="4. return ad" style="edgeStyle=orthogonalEdgeStyle;rounded=0;orthogonalLoop=1;jettySize=auto;html=1;entryX=1;entryY=0.75;entryDx=0;entryDy=0;strokeWidth=2;dashed=1;exitX=0;exitY=0.75;exitDx=0;exitDy=0;labelBackgroundColor=default;" edge="1" parent="1" source="68UAQQjrMY6dqDlBcahg-9" target="68UAQQjrMY6dqDlBcahg-8">
          <mxGeometry relative="1" as="geometry">
            <Array as="points">
              <mxPoint x="690" y="505" />
              <mxPoint x="690" y="505" />
            </Array>
          </mxGeometry>
        </mxCell>
        <mxCell id="68UAQQjrMY6dqDlBcahg-24" value="BrandAdAdaptor" style="rounded=1;whiteSpace=wrap;html=1;fillColor=#1ba1e2;fontColor=#ffffff;strokeColor=#006EAF;" vertex="1" parent="1">
          <mxGeometry x="20" y="202.5" width="220" height="75" as="geometry" />
        </mxCell>
        <object placeholders="1" c4Type="Relationship" c4Description="query performance mixer" label="&lt;div style=&quot;text-align: left&quot;&gt;&lt;div style=&quot;text-align: center&quot;&gt;&lt;b&gt;%c4Description%&lt;/b&gt;&lt;/div&gt;" id="68UAQQjrMY6dqDlBcahg-26">
          <mxCell style="endArrow=blockThin;html=1;fontSize=10;fontColor=#404040;strokeWidth=2;endFill=1;strokeColor=#828282;elbow=vertical;metaEdit=1;endSize=14;startSize=14;jumpStyle=arc;jumpSize=16;rounded=0;edgeStyle=orthogonalEdgeStyle;labelBackgroundColor=default;" edge="1" parent="1">
            <mxGeometry width="240" relative="1" as="geometry">
              <mxPoint x="250" y="230" as="sourcePoint" />
              <mxPoint x="460" y="230" as="targetPoint" />
            </mxGeometry>
          </mxCell>
        </object>
        <object placeholders="1" c4Type="Relationship" c4Description="return ad list" label="&lt;div style=&quot;text-align: left&quot;&gt;&lt;div style=&quot;text-align: center&quot;&gt;&lt;b&gt;%c4Description%&lt;/b&gt;&lt;/div&gt;" id="68UAQQjrMY6dqDlBcahg-27">
          <mxCell style="endArrow=blockThin;html=1;fontSize=10;fontColor=#404040;strokeWidth=2;endFill=1;strokeColor=#828282;elbow=vertical;metaEdit=1;endSize=14;startSize=14;jumpStyle=arc;jumpSize=16;rounded=0;edgeStyle=orthogonalEdgeStyle;labelBackgroundColor=default;dashed=1;" edge="1" parent="1">
            <mxGeometry width="240" relative="1" as="geometry">
              <mxPoint x="460" y="340" as="sourcePoint" />
              <mxPoint x="250" y="340" as="targetPoint" />
            </mxGeometry>
          </mxCell>
        </object>
        <mxCell id="68UAQQjrMY6dqDlBcahg-28" value="read creativeTransparent" style="edgeStyle=orthogonalEdgeStyle;rounded=0;orthogonalLoop=1;jettySize=auto;html=1;entryX=0.3;entryY=1.007;entryDx=0;entryDy=0;entryPerimeter=0;labelBackgroundColor=default;strokeWidth=2;exitX=1;exitY=0.633;exitDx=0;exitDy=0;exitPerimeter=0;" edge="1" parent="1" source="68UAQQjrMY6dqDlBcahg-24" target="68UAQQjrMY6dqDlBcahg-24">
          <mxGeometry relative="1" as="geometry" />
        </mxCell>
        <mxCell id="68UAQQjrMY6dqDlBcahg-29" value="测试点:&lt;br&gt;1. 浏览器开屏支持召回效果广告(历史功能)&lt;br&gt;2. 实验支持双通道数据上报功能(测试100%实验配置)&lt;br&gt;3. 召回的信息流广告,支持双通道数据上报(曝光+点击)" style="shape=document;whiteSpace=wrap;html=1;boundedLbl=1;labelBackgroundColor=default;align=left;" vertex="1" parent="1">
          <mxGeometry x="10" y="425" width="220" height="135" as="geometry" />
        </mxCell>
      </root>
    </mxGraphModel>
  </diagram>
</mxfile>
